<?xml version="1.0" encoding="UTF-8" standalone="no"?>
<!-- Created with Inkscape (http://www.inkscape.org/) -->

<svg
   width="443.27444"
   height="391.61899"
   viewBox="0 0 117.28303 103.61586"
   version="1.1"
   id="svg1"
   xml:space="preserve"
   inkscape:export-filename="..\..\..\projectf\data\graphics\items\Stone Sword.png"
   inkscape:export-xdpi="12"
   inkscape:export-ydpi="12"
   inkscape:version="1.3.2 (091e20e, 2023-11-25, custom)"
   sodipodi:docname="Gladius.svg"
   xmlns:inkscape="http://www.inkscape.org/namespaces/inkscape"
   xmlns:sodipodi="http://sodipodi.sourceforge.net/DTD/sodipodi-0.dtd"
   xmlns:xlink="http://www.w3.org/1999/xlink"
   xmlns="http://www.w3.org/2000/svg"
   xmlns:svg="http://www.w3.org/2000/svg"><sodipodi:namedview
     id="namedview1"
     pagecolor="#505050"
     bordercolor="#eeeeee"
     borderopacity="1"
     inkscape:showpageshadow="0"
     inkscape:pageopacity="0"
     inkscape:pagecheckerboard="0"
     inkscape:deskcolor="#505050"
     inkscape:document-units="px"
     inkscape:zoom="0.125"
     inkscape:cx="360"
     inkscape:cy="576"
     inkscape:window-width="1718"
     inkscape:window-height="1368"
     inkscape:window-x="3626"
     inkscape:window-y="0"
     inkscape:window-maximized="0"
     inkscape:current-layer="layer4"
     showgrid="true"><inkscape:grid
       id="grid11"
       units="px"
       originx="-5.6444564"
       originy="-312.56111"
       spacingx="0.26458333"
       spacingy="0.26458333"
       empcolor="#0099e5"
       empopacity="0.30196078"
       color="#0099e5"
       opacity="0.14901961"
       empspacing="5"
       dotted="false"
       gridanglex="30"
       gridanglez="30"
       visible="true" /></sodipodi:namedview><defs
     id="defs1"><linearGradient
       id="linearGradient52"
       inkscape:collect="always"><stop
         style="stop-color:#434242;stop-opacity:1;"
         offset="0"
         id="stop53" /><stop
         style="stop-color:#6f6f6e;stop-opacity:1;"
         offset="0.5"
         id="stop55" /><stop
         style="stop-color:#434242;stop-opacity:1;"
         offset="1"
         id="stop54" /></linearGradient><linearGradient
       id="linearGradient51"
       inkscape:collect="always"><stop
         style="stop-color:#d2001e;stop-opacity:1;"
         offset="0"
         id="stop51" /><stop
         style="stop-color:#8d1123;stop-opacity:1;"
         offset="0.77389276"
         id="stop52" /></linearGradient><radialGradient
       inkscape:collect="always"
       xlink:href="#linearGradient51"
       id="radialGradient52"
       cx="115.83453"
       cy="566.20831"
       fx="115.83453"
       fy="566.20831"
       r="121.1262"
       gradientTransform="matrix(0.38095229,0,0,0.41606862,31.246036,128.7875)"
       gradientUnits="userSpaceOnUse" /><linearGradient
       inkscape:collect="always"
       xlink:href="#linearGradient52"
       id="linearGradient54"
       x1="0"
       y1="465.66666"
       x2="0"
       y2="507.99997"
       gradientUnits="userSpaceOnUse"
       gradientTransform="matrix(0.38095229,0,0,0.38095229,35.277782,150.68654)" /><linearGradient
       inkscape:collect="always"
       xlink:href="#linearGradient52"
       id="linearGradient55"
       gradientUnits="userSpaceOnUse"
       x1="0"
       y1="465.66666"
       x2="0"
       y2="507.99997"
       gradientTransform="matrix(0.38095229,0,0,0.38095229,35.277777,207.13096)" /></defs><g
     inkscape:groupmode="layer"
     id="layer1"
     inkscape:label="Layer 1"
     transform="translate(-5.6444564,-312.5611)"><path
       id="circle47"
       style="fill:url(#radialGradient52);stroke:#000000;stroke-width:0;stroke-linecap:round;stroke-linejoin:round;paint-order:markers stroke fill"
       d="m 79.626977,313.97221 a 50.396811,50.396811 0 0 0 -50.396813,50.39681 50.396811,50.396811 0 0 0 50.396813,50.39682 50.396811,50.396811 0 0 0 41.860653,-22.43426 34.269837,34.269837 0 0 1 -19.68606,6.30728 34.269837,34.269837 0 0 1 -34.269829,-34.26984 34.269837,34.269837 0 0 1 34.269829,-34.26983 34.269837,34.269837 0 0 1 19.7152,6.25157 50.396811,50.396811 0 0 0 -41.889793,-22.37855 z" /><rect
       style="fill:#434242;fill-opacity:1;stroke:none;stroke-width:3.04054;stroke-linecap:round;stroke-linejoin:round;stroke-dasharray:none;stroke-opacity:1;paint-order:normal"
       id="rect51"
       width="20.158726"
       height="52.412685"
       x="23.182545"
       y="336.14679"
       rx="2.8798184"
       ry="13.234891" /><rect
       style="fill:url(#linearGradient54);fill-opacity:1;stroke:none;stroke-width:2.82222;stroke-linecap:round;stroke-linejoin:round;stroke-dasharray:none;stroke-opacity:1;paint-order:normal"
       id="rect50"
       width="56.444431"
       height="16.12698"
       x="7.0555654"
       y="328.08331"
       rx="8.0634918"
       ry="4.0722742" /><rect
       style="fill:url(#linearGradient55);fill-opacity:1;stroke:none;stroke-width:2.82222;stroke-linecap:round;stroke-linejoin:round;stroke-dasharray:none;stroke-opacity:1;paint-order:normal"
       id="rect55"
       width="56.444431"
       height="16.12698"
       x="7.0555615"
       y="384.52774"
       rx="8.0634918"
       ry="4.0722742" /><rect
       style="fill:#f9ce55;fill-opacity:1;stroke:none;stroke-width:5.18476;stroke-linecap:round;stroke-linejoin:round;stroke-dasharray:none;stroke-opacity:1;paint-order:normal"
       id="rect56"
       width="6.0476146"
       height="36.285698"
       x="56.041267"
       y="346.22617"
       rx="1.8897998"
       ry="4.5357108" /><path
       id="path56"
       style="fill:none;fill-opacity:1;stroke:#000000;stroke-width:2.82222;stroke-linecap:round;stroke-linejoin:round;stroke-dasharray:none;paint-order:markers stroke fill"
       d="M 79.626977,313.97221 A 50.396811,50.396811 0 0 0 44.822465,328.08332 H 15.119056 c -4.46717,0 -8.06349,1.81626 -8.06349,4.0723 v 7.98238 c 0,2.25604 3.59632,4.0723 8.06349,4.0723 h 8.290079 c -0.14595,1.58725 -0.226589,3.3343 -0.226589,5.17138 v 25.94294 c 0,3.5861 0.308497,6.82425 0.809105,9.20313 h -8.872595 c -4.46717,0 -8.06349,1.81626 -8.06349,4.0723 v 7.98238 c 0,2.25604 3.59632,4.0723 8.06349,4.0723 h 29.703409 a 50.396811,50.396811 0 0 0 34.804512,14.11111 50.396811,50.396811 0 0 0 41.860653,-22.43426 34.269837,34.269837 0 0 1 -19.68606,6.30728 34.269837,34.269837 0 0 1 -34.269829,-34.26984 34.269837,34.269837 0 0 1 34.269829,-34.26983 34.269837,34.269837 0 0 1 19.7152,6.25157 50.396811,50.396811 0 0 0 -41.889793,-22.37855 z" /></g></svg>
